<?xml version="1.0" encoding="utf-8"?>
<!-- Generator: Adobe Illustrator 16.0.0, SVG Export Plug-In . SVG Version: 6.00 Build 0)  -->
<!DOCTYPE svg PUBLIC "-//W3C//DTD SVG 1.1//EN" "http://www.w3.org/Graphics/SVG/1.1/DTD/svg11.dtd">
<svg version="1.1" id="Layer_1" xmlns="http://www.w3.org/2000/svg" xmlns:xlink="http://www.w3.org/1999/xlink" viewBox="0 0 155 162"
	 xml:space="preserve">
<g>
	<path fill="#0077B5" d="M12.852,32.64c-0.137,1.09-1.906,3.742-5.304,7.956c-0.408,0.816-1.02,1.157-1.836,1.02
		c-1.09,0-2.11-0.408-3.06-1.224c-0.408-0.408-1.224-1.699-2.448-3.876C0.067,34.342,0,32.981,0,32.436
		c0.408-3.943,2.244-5.712,5.508-5.304c0.816,0.137,1.836,1.294,3.06,3.468c0.134,0.137,0.306,0.102,0.51-0.102
		c0.204-0.204,0.44-0.306,0.714-0.306c0.408,0,1.02,0.306,1.836,0.918C12.444,31.722,12.852,32.232,12.852,32.64z M150.552,26.112
		c-1.361,0.816-2.11,1.769-2.244,2.856c0,0.545,0.134,1.09,0.408,1.632c-0.682,0.274-1.565,0.886-2.652,1.836
		c0-0.134-0.07-0.338-0.204-0.612c-2.722,1.632-4.08,3.946-4.08,6.936c1.087-0.95,2.652-2.515,4.692-4.692l-0.204,1.02l1.224,0.204
		c0.408-0.134,0.679-0.204,0.816-0.204c-1.498,0-2.926,1.565-4.284,4.692c0,0.274,0.067,0.612,0.204,1.02
		c-2.856,4.896-4.284,7.889-4.284,8.976c0.408,0.137,0.816,0,1.224-0.408c0.408-1.087,2.244-3.535,5.508-7.344
		c-1.498,2.448-3.06,5.17-4.692,8.16c-3.13,6.12-4.762,9.929-4.896,11.424c0,0.274-0.239,0.851-0.714,1.734
		c-0.479,0.886-0.784,1.6-0.918,2.142c0,0.545,0.134,1.294,0.408,2.244l-0.612-0.408c0.271,0.274,0.408,0.612,0.408,1.02
		c0,0.274-0.204,0.612-0.612,1.02v0.408c-0.137,0.137-0.07,0.274,0.204,0.408l0.816-1.428c0.679,1.09,0.95,1.836,0.816,2.244
		c0,0.816-1.361,3.468-4.08,7.956c-0.137,0-0.204,0.408-0.204,1.224l-0.816-0.612v0.204c0,0.137,0.067,0.274,0.204,0.408
		c0.134,0.137,0.204,0.408,0.204,0.816c-0.137,0.408-1.02,2.652-2.652,6.732c-0.682-0.134-1.224-0.134-1.632,0
		c-0.137,0.545,0,0.816,0.408,0.816c0.271,0.137,0.612,0,1.02-0.408c-0.274,0.545-0.816,1.361-1.632,2.448
		c0.542,0.545,1.087,1.294,1.632,2.244l-11.628,26.112c-5.986,13.738-11.832,23.256-17.544,28.561c0,0.679-0.749,1.969-2.244,3.875
		c-0.682,0.271-1.632,0.883-2.856,1.836c-0.274,0-0.647-0.238-1.122-0.714c-0.478-0.478-0.851-0.714-1.122-0.714
		c-0.274,0-0.545,0.134-0.816,0.408c-0.274,0.271-0.545,0.408-0.816,0.408c-0.816,0-1.836-1.157-3.06-3.469
		c-0.682,0.271-1.02,0.746-1.02,1.429c0.134,0.679,0.134,1.224,0,1.632c-0.137-0.408-1.09-0.545-2.856-0.408
		c0.271,0.816,0.883,2.107,1.836,3.876c-6.936-2.993-10.2-4.488-9.792-4.488c-0.274,0-0.408,0.135-0.408,0.408
		c0,0.271-0.204,0.408-0.612,0.408c0.134,0,0.067-0.204-0.204-0.612c-3.946-1.224-6.802-1.836-8.568-1.836
		c-1.224-0.545-2.11-1.766-2.652-3.672c-0.137-0.271-0.545-0.541-1.224-0.816c-2.448-4.621-4.217-7.002-5.304-7.14
		c0-0.134,0.134-0.338,0.408-0.612l0.408-0.612c0.271-1.632-0.204-2.515-1.428-2.652c-0.953-0.134-2.04,1.09-3.264,3.672
		c0.134,0.274,0.204,0.682,0.204,1.224c-0.274,0-2.177,2.04-5.712,6.12c-3.538,4.08-5.849,6.051-6.936,5.917
		c0.408,0.134-0.478-0.408-2.652-1.633c-0.545,0-1.294-0.137-2.244-0.407c-0.953-0.274-1.702-0.408-2.244-0.408
		c-0.816,0.815-1.361,1.97-1.632,3.468c-0.408,0.679-1.361,0.883-2.856,0.612c-3.809-0.274-6.257-2.381-7.344-6.324l-3.672-4.08
		c-1.498-2.719-3.06-5.371-4.692-7.956c-1.769-3.535-2.926-6.391-3.468-8.568c-2.585-10.471-4.421-21.487-5.508-33.048l0.204-2.448
		c0-0.95-0.479-1.699-1.428-2.244c-0.408,8.705,0.338,16.661,2.244,23.868c-1.09-0.134-1.702-0.542-1.836-1.224
		c-0.545-1.766-1.02-3.943-1.428-6.528C0.95,95.609,0.746,86.362,1.836,76.296c0.271-2.99,1.291-5.642,3.06-7.956
		c-0.137,0.274-0.137-0.067,0-1.02c0.271,0.408,0.542,0.612,0.816,0.612l0.816-0.408c-0.408-0.271-0.816-0.95-1.224-2.04
		c0.542,0,0.95-0.134,1.224-0.408c0.271,0.816,0.679,1.906,1.224,3.264l0.816,0.204c0.271,0.274,0.475-0.271,0.612-1.632
		c-1.224-1.224-1.769-2.311-1.632-3.264c0.134,0,0.306-0.134,0.51-0.408c0.204-0.271,0.44-0.338,0.714-0.204
		c0.542,0,1.224,0.953,2.04,2.856c0.134-0.134,0.204-0.408,0.204-0.816c0.271-2.04-0.274-3.943-1.632-5.712
		c-0.137,0-0.306,0.035-0.51,0.102c-0.204,0.07-0.443,0.102-0.714,0.102c-0.408,0-1.02-0.848-1.836-2.55
		c-0.816-1.699-1.157-2.821-1.02-3.366c0-0.271,0.102-0.51,0.306-0.714s0.306-0.373,0.306-0.51H7.14
		c0.95,0.545,1.632,1.498,2.04,2.856c0.134,0.682,0,1.702-0.408,3.06c0.134,0.408,0.475,0.816,1.02,1.224
		c0.271-0.679,0.746-0.95,1.428-0.816c0.408,0.137,1.087,0.749,2.04,1.836c0.134-0.679,0.475-1.699,1.02-3.06
		c1.087,1.09,1.836,1.973,2.244,2.652c0.679,0.137,1.154,0.137,1.428,0c-2.722-4.759-4.013-7.819-3.876-9.18
		c0.134-0.95,0.883-2.244,2.244-3.876c1.358-1.632,2.515-2.378,3.468-2.244c0.679,0,1.562,0.612,2.652,1.836
		c1.087,1.224,1.562,2.177,1.428,2.856c0,0.545-0.306,1.428-0.918,2.652c-0.612,1.224-0.918,2.11-0.918,2.652
		c0.134,0.274,0.542,1.157,1.224,2.652c3.264-0.679,4.896-1.428,4.896-2.244c0,1.09-0.274-0.067-0.816-3.468
		c0.134,0,0.373-0.067,0.714-0.204c0.338-0.134,0.644-0.134,0.918,0c1.358,0.137,2.244,2.789,2.652,7.956
		c-0.545,13.056,0.542,27.406,3.264,43.044c0.271,0.408,0.679,1.157,1.224,2.244c0.271,0,0.475-0.134,0.612-0.408
		c0-0.134-0.137-0.338-0.408-0.612c1.224-1.495,1.699-2.515,1.428-3.06l0.816,1.02c0.542-0.679,0.883-1.224,1.02-1.632
		c-0.137-0.271-0.274-0.408-0.408-0.408c0.408-0.408,0.612-0.883,0.612-1.428c0.542-0.816,1.632-2.652,3.264-5.508
		c-0.137,0.274-0.545-0.067-1.224-1.02c0.542,0.137,0.883,0.274,1.02,0.408c0.271-0.271,0.679-0.746,1.224-1.428
		c0-0.134-0.07-0.338-0.204-0.612c0.816-1.087,1.358-2.311,1.632-3.672c1.358-1.495,2.174-2.786,2.448-3.876
		c0,0.137,0.134,0.274,0.408,0.408c0.816-0.542,1.358-1.495,1.632-2.856c0-0.542,0.067-1.428,0.204-2.652
		c0.816-0.271,1.326-1.052,1.53-2.346c0.204-1.291,0.985-2.346,2.346-3.162c1.358-0.816,2.244-1.428,2.652-1.836
		c0.134-4.351,1.02-8.906,2.652-13.668c0.408-1.224,1.428-2.582,3.06-4.08c1.632-1.495,2.99-2.174,4.08-2.04
		c1.224,0.137,2.378,1.294,3.468,3.468c0.408-0.271,1.087-0.338,2.04-0.204c-0.274-0.134,0.067-0.408,1.02-0.816l2.04-2.856
		l3.06,1.428c0.408,0,1.087-0.134,2.04-0.408c1.224,2.722,1.766,6.461,1.632,11.22L81.6,73.44c-0.137-0.408-0.274,0-0.408,1.224
		c0.134,0.274,0.271,0.408,0.408,0.408c0.408-0.408,0.679-0.95,0.816-1.632c0-0.408-0.137-1.087-0.408-2.04
		c0.271-0.271,0.679-0.338,1.224-0.204c0-0.679,0.134-1.632,0.408-2.856c0.271-1.224,0.475-2.174,0.612-2.856
		c0,0.545,0.204,1.294,0.612,2.244c0.134-0.408,0.612-1.632,1.428-3.672c0,0.137,0.067,0.204,0.204,0.204
		c0.271,0.137,0.542,0.137,0.816,0l-2.856,25.296c0-0.816-0.137-2.107-0.408-3.876c-0.408,0.545-0.682,1.361-0.816,2.448
		c-0.137,1.361,0,2.993,0.408,4.896c0.679-1.632,1.02-2.652,1.02-3.06l-0.612,16.932c-0.137,2.177-0.274,5.441-0.408,9.792
		c4.896-5.712,9.859-14.347,14.892-25.908c7.07-16.046,11.22-25.226,12.444-27.54c0.679-1.358,1.02-2.515,1.02-3.468
		c0.679-0.134,1.087-0.408,1.224-0.816c0-0.134-0.07-0.408-0.204-0.816c1.632-2.448,3.672-6.12,6.12-11.016
		c0,0.408,0.338,0.953,1.02,1.632c0.271,0,0.475,0,0.612,0c0.816-1.224,1.97-2.856,3.468-4.896c-0.953,3.264-2.652,6.732-5.1,10.404
		l0.408,1.02c-1.09,0.274-1.973,1.224-2.652,2.856c-0.274,0.682-0.408,1.294-0.408,1.836c-0.137,0.545,0,1.02,0.408,1.428
		c-0.137,0-0.408-0.271-0.816-0.816c-0.137,0.545-0.682,1.294-1.632,2.244v1.632c1.632-0.679,2.378-1.087,2.244-1.224
		c-0.545-0.408-0.816-0.746-0.816-1.02l0.816,0.204c-0.274,0,0.271-0.204,1.632-0.612c-0.408-0.542-0.478-0.816-0.204-0.816
		l0.204-0.204l0.204-0.816c0.134-0.271,1.699-2.856,4.692-7.752c0.408-0.95,0.338-1.495-0.204-1.632
		c0.408-0.134,0.883-0.612,1.428-1.428c0.408-1.495,1.291-3.672,2.652-6.528c1.632-1.495,3.194-3.264,4.692-5.304
		c0.408-0.408,1.766-2.107,4.08-5.1l2.04-2.448c-0.137,0.682-0.137,1.09,0,1.224c0.542-0.542,1.428-1.358,2.652-2.448l1.224-2.448
		c-0.137,0.137-0.07,0.341,0.204,0.612c0.408-0.542,0.816-1.154,1.224-1.836c0,1.632-0.545,3.197-1.632,4.692
		c0.134,0.137,0.338,0.204,0.612,0.204c0.408-0.408,1.495-1.495,3.264-3.264c-5.849,7.752-11.086,15.233-15.708,22.44
		c-0.408,0.816-0.545,1.632-0.408,2.448l13.056-17.544c0.542-0.816,1.154-1.699,1.836-2.652c-0.274,0-0.204,0.274,0.204,0.816
		c1.766-2.582,2.582-4.284,2.448-5.1c0.134,0,0.408,0.274,0.816,0.816c0.408-0.271,0.95-0.612,1.632-1.02
		c0.134-0.542,0.542-1.154,1.224-1.836V26.112z M29.376,18.768c-0.137,1.906-3.197,4.354-9.18,7.344
		c-1.498-1.358-2.856-2.107-4.08-2.244h-0.612c0,0.137-0.137,0.204-0.408,0.204c-3.809-0.408-5.374-3.806-4.692-10.2
		c0.408-3.535,1.766-5.167,4.08-4.896c0.816,0.137,1.428,0.341,1.836,0.612c2.99-4.351,5.234-6.458,6.732-6.324
		c1.903,0.274,3.331,1.498,4.284,3.672l1.836,5.916l-0.204,3.264c0,0.137,0.067,0.545,0.204,1.224
		C29.306,18.022,29.376,18.497,29.376,18.768z M17.544,39.984c-0.137,1.224-1.157,1.769-3.06,1.632
		c-1.09-0.134-2.04-1.087-2.856-2.856c0.679-0.816,1.495-1.154,2.448-1.02C16.524,37.877,17.678,38.626,17.544,39.984z M13.26,67.32
		h-0.612l-0.612,0.816l0.612,0.408L13.26,67.32z M13.464,85.272c0-1.766,0.067-4.147,0.204-7.14
		c-0.274-0.408-0.682-1.02-1.224-1.836l-0.204,1.836c0,0.953,0.271,1.973,0.816,3.06C12.374,82.961,12.511,84.322,13.464,85.272z
		 M13.668,62.628h-0.612l-0.408,1.02l0.612,0.204L13.668,62.628z M13.464,65.076V64.26h-0.408l-0.204,0.816H13.464z M18.36,80.784
		l-0.408-0.204l-0.408,0.816l0.408,0.408L18.36,80.784z M24.48,146.064l-1.02-0.204v-0.611l1.02,0.203V146.064z M27.744,74.052
		l0.204-2.856c-0.274-0.134-0.545-0.338-0.816-0.612c0,0.408-0.137,1.565-0.408,3.468l-0.408,0.204c0,0.274,0,0.612,0,1.02
		C26.45,75.005,26.928,74.597,27.744,74.052z M32.028,39.168c-2.993,1.361-4.217,2.04-3.672,2.04
		c-1.499-0.134-2.11-1.428-1.836-3.876c0.134-1.766,0.816-2.582,2.04-2.448c0.95,0.137,2.174,0.816,3.672,2.04L32.028,39.168z
		 M28.764,59.16v-0.816l-0.612-0.204v0.816L28.764,59.16z M51.408,22.032c-0.545,0.545-0.886,0.816-1.02,0.816
		c0.408,0-0.749-0.612-3.468-1.836c0-0.542,0.134-1.632,0.408-3.264c1.087,0.408,2.515,1.02,4.284,1.836L51.408,22.032z
		 M55.08,72.42l-0.408-0.204l-0.408,1.02l0.408,0.204L55.08,72.42z M66.096,56.712c0.271-2.174,0.271-3.398,0-3.672
		c-1.09,0.953-1.702,1.769-1.836,2.448c0,0.408,0.067,0.75,0.204,1.02v0.408c0.134,0,0.408-0.032,0.816-0.102
		C65.688,56.747,65.958,56.712,66.096,56.712z M78.744,121.584l1.632-26.52c0,0.408-0.102,1.122-0.306,2.142
		s-0.376,1.734-0.51,2.142L78.744,121.584z M80.988,93.228h-0.612l-0.408,1.02l0.612,0.204L80.988,93.228z M81.192,92.004H80.58
		l-0.408,1.02l0.408,0.204L81.192,92.004z M81.6,87.924c-0.274-1.358-0.341-2.311-0.204-2.856c-0.408,3.13-0.545,4.966-0.408,5.508
		C80.988,90.168,81.192,89.285,81.6,87.924z M82.008,82.212l0.408-4.08c-0.816,1.361-1.224,2.244-1.224,2.652
		C81.326,81.058,81.6,81.533,82.008,82.212z M82.824,76.704L82.212,76.5l-0.408,0.612l0.612,0.408L82.824,76.704z M83.028,111.18
		l0.408-3.06h-0.612l-0.408,3.06H83.028z M83.232,113.424l0.204-1.224h-0.612l-0.204,1.224H83.232z M83.436,117.096l-0.408,1.428
		l-0.408-0.204l0.408-1.224H83.436z M83.436,106.488l0.204-2.856h-0.612l-0.204,2.856H83.436z M83.64,100.164l0.204-1.224h-0.612
		l-0.204,1.224H83.64z M84.252,84.66l0.204-2.652h-0.612l-0.204,2.448L84.252,84.66z M103.836,91.188
		c-0.408,0-0.682-0.204-0.816-0.612c0.679-1.632,1.087-3.264,1.224-4.896c-0.816,1.361-1.836,3.264-3.06,5.712
		c0.271,0.816,0.338,1.428,0.204,1.836c0,0.545-0.341,1.09-1.02,1.632l-0.204,2.244c0.816-0.408,1.597-1.46,2.346-3.162
		C103.256,92.243,103.699,91.325,103.836,91.188z M103.02,147.493c-0.408,0.545-1.02,0.745-1.836,0.611
		c0.134,0.134,0.204,0.408,0.204,0.816C102.475,148.646,103.02,148.171,103.02,147.493z M104.448,146.268l-1.02,1.02l-0.204-0.408
		l0.816-1.02L104.448,146.268z M110.772,77.112c0-0.271-0.07-0.542-0.204-0.816c-0.137-0.271-0.204-0.475-0.204-0.612
		c-0.274,0-0.478,0.137-0.612,0.408c0.134,0.816-0.274,1.428-1.224,1.836c-0.408,1.906-1.361,4.15-2.856,6.732
		c0-1.087-0.07-1.903-0.204-2.448c0,0.408-0.172,0.918-0.51,1.53c-0.341,0.612-0.51,1.122-0.51,1.53l1.02-0.408
		c0.271,0.274,0.408,0.612,0.408,1.02C109.003,80.446,110.635,77.52,110.772,77.112z M106.692,81.192l0.204-1.02l-0.408,0.204
		c-0.274,0.137-0.408,0.274-0.408,0.408C106.08,81.058,106.284,81.192,106.692,81.192z M112.2,69.36l-0.408-0.204l-0.612,1.836
		h0.612L112.2,69.36z M114.24,70.176c0-0.134-0.035-0.373-0.102-0.714c-0.07-0.338-0.102-0.577-0.102-0.714
		c-0.274,0.408-0.682,0.953-1.224,1.632C113.22,70.109,113.695,70.042,114.24,70.176z M114.852,65.892h-0.612l-0.612,1.632
		l0.612,0.204L114.852,65.892z M126.684,57.12h-0.408l-0.408,1.02l0.204,0.408L126.684,57.12z M128.928,42.432l-0.204-0.612
		l-1.428,1.224l0.408,0.204L128.928,42.432z M128.316,89.556l-0.408-0.408l-0.408,0.204l0.408,0.612L128.316,89.556z M130.56,83.64
		c-0.682,0.953-1.157,1.632-1.428,2.04h0.612C130.152,84.73,130.423,84.048,130.56,83.64z M133.824,68.952l-0.612-0.204
		l-0.612,2.244h0.408L133.824,68.952z M134.028,21.42l-0.816,0.816l-0.408-0.204l0.612-1.02L134.028,21.42z M135.048,68.136v-1.428
		h-0.612v1.428H135.048z M137.7,73.644l-1.02,1.428l-0.408-0.204l1.02-1.224H137.7z M137.496,65.688l-1.02,0.204v-0.408l0.816-0.408
		L137.496,65.688z M140.556,18.564c-0.682,1.498-1.294,2.652-1.836,3.468c-0.137-0.271-0.204-0.612-0.204-1.02
		C138.516,20.604,139.195,19.788,140.556,18.564z M141.372,23.256h-0.612v-1.02h0.612V23.256z M143.412,16.116l-1.836,2.04
		l-0.408-0.408l1.836-2.04L143.412,16.116z M142.392,24.276l-1.224,1.02c0-0.542,0.338-1.291,1.02-2.244
		C142.188,23.597,142.255,24.005,142.392,24.276z"/></g></svg>